<?xml version="1.0" standalone="no"?>
<!DOCTYPE svg PUBLIC "-//W3C//DTD SVG 20010904//EN"
 "http://www.w3.org/TR/2001/REC-SVG-20010904/DTD/svg10.dtd">
<svg version="1.0" xmlns="http://www.w3.org/2000/svg"
 width="1000.000000pt" height="1000.000000pt" viewBox="0 0 1000.000000 1000.000000"
 preserveAspectRatio="xMidYMid meet">
<metadata>
Created by potrace 1.14, written by Peter Selinger 2001-2017
</metadata>
<g transform="translate(0.000000,1000.000000) scale(0.100000,-0.100000)"
fill="#000000" stroke="none">
<path d="M4640 8439 c-91 -3 -187 -9 -215 -13 -408 -56 -698 -141 -1004 -295
-116 -58 -116 -58 -156 -44 -149 53 -444 82 -641 64 -140 -13 -154 -18 -200
-66 -97 -100 -155 -285 -185 -583 -7 -67 -17 -126 -23 -132 -7 -5 -61 -25
-121 -45 -184 -60 -365 -160 -536 -296 -214 -170 -346 -356 -428 -604 -165
-501 -66 -1053 246 -1372 128 -130 311 -247 489 -312 59 -22 78 -33 76 -46 -2
-9 -58 -102 -125 -208 -68 -106 -135 -213 -150 -240 -34 -58 -55 -71 -137 -87
-36 -6 -139 -36 -230 -65 -241 -77 -380 -135 -486 -201 -48 -30 -57 -32 -113
-27 -75 7 -111 -7 -156 -60 -61 -71 -79 -134 -79 -277 -1 -182 21 -250 142
-450 29 -47 52 -87 52 -90 0 -3 -51 -5 -113 -5 -105 -1 -116 -3 -178 -32 -129
-63 -180 -122 -243 -281 -85 -212 -99 -453 -37 -639 38 -115 76 -191 137 -272
202 -268 539 -455 889 -491 102 -11 217 -2 352 25 40 8 78 15 86 15 11 0 15
-32 20 -152 25 -577 39 -842 52 -973 8 -82 15 -158 15 -167 0 -15 10 -18 71
-18 l70 0 -5 53 c-20 189 -54 704 -65 1012 -6 132 -13 248 -16 257 -5 13 5 23
45 43 68 34 172 137 226 223 l20 32 40 -28 c34 -25 206 -112 274 -139 16 -7
38 -35 62 -82 88 -168 205 -285 335 -335 58 -23 180 -55 274 -71 162 -29 275
-15 356 44 45 33 83 103 83 154 l0 34 218 6 c233 6 393 22 621 63 144 25 407
89 490 118 24 9 46 14 48 12 3 -2 7 -19 9 -38 17 -114 74 -220 174 -319 64
-62 97 -85 196 -135 279 -141 473 -187 789 -188 324 -1 496 39 780 179 196 97
407 252 503 370 27 32 35 37 42 25 31 -53 88 -125 101 -128 9 -1 28 2 43 8 58
22 113 203 123 404 6 119 -3 95 114 279 113 178 271 493 299 597 8 31 8 45 -1
56 -26 31 -23 35 -209 -301 -193 -348 -218 -391 -223 -375 -3 8 -10 42 -17 75
-40 195 -160 452 -235 501 -23 15 -24 18 -11 48 7 18 24 75 37 127 21 84 24
116 24 309 0 239 -12 313 -76 466 -61 145 -191 306 -290 358 -71 37 -101 8
-114 -109 -14 -127 -46 -228 -121 -380 -88 -179 -131 -225 -280 -300 -162 -80
-347 -117 -494 -96 -39 5 -74 12 -77 15 -3 3 11 31 30 63 69 113 179 370 221
517 15 52 16 61 2 74 -13 13 -17 12 -39 -12 -27 -29 -186 -344 -253 -501 -38
-89 -45 -100 -66 -97 -38 5 -202 101 -285 167 -108 86 -179 164 -385 420 -163
204 -428 485 -456 485 -6 0 -18 26 -27 58 -24 83 -68 154 -142 228 -108 107
-228 174 -389 214 -75 19 -108 22 -214 18 -108 -4 -134 -8 -182 -31 l-57 -26
-25 54 c-46 102 -164 185 -314 222 -91 22 -299 22 -407 -1 -123 -27 -249 -71
-372 -132 -175 -87 -405 -252 -419 -301 -5 -18 -15 -23 -57 -27 -29 -3 -98
-11 -155 -17 -57 -6 -105 -9 -108 -7 -2 3 4 16 14 29 30 38 115 176 162 264
24 44 51 92 61 106 10 14 21 37 24 52 6 23 12 27 46 27 27 0 41 5 48 19 13 24
6 30 -84 71 -394 178 -605 352 -739 610 -120 231 -162 492 -122 760 20 133 46
214 104 329 70 136 162 258 278 370 170 165 446 331 629 381 44 12 91 27 105
34 32 15 49 64 49 143 1 74 54 397 77 468 26 77 61 141 91 165 27 22 32 22
207 16 163 -6 348 -24 442 -44 l37 -8 -41 -39 c-95 -92 -38 -112 99 -36 361
201 759 323 1219 375 219 24 503 39 618 33 319 -19 624 -108 1006 -296 89 -44
170 -81 181 -83 13 -2 23 5 30 21 l10 23 165 -5 c179 -6 293 -26 456 -78 111
-35 143 -66 174 -166 44 -143 47 -282 13 -669 -4 -53 -3 -62 13 -68 13 -5 23
0 35 15 17 23 49 115 49 143 0 27 24 29 102 6 163 -48 299 -110 428 -195 319
-212 511 -482 607 -855 31 -119 35 -149 35 -260 0 -171 -52 -469 -103 -588
-38 -89 -173 -268 -283 -376 -184 -181 -446 -318 -685 -360 -43 -7 -84 -16
-90 -20 -19 -12 -12 -34 14 -43 26 -8 207 0 243 11 37 12 211 -271 382 -619
239 -488 425 -1007 634 -1765 59 -214 62 -231 151 -720 134 -734 149 -829 185
-1155 28 -260 18 -235 96 -235 l66 0 -7 68 c-3 37 -8 85 -11 107 l-4 40 187
92 c203 98 259 136 369 243 131 129 226 296 275 486 31 120 34 403 6 534 -69
318 -250 575 -486 690 -99 49 -146 61 -263 67 -135 7 -202 -5 -341 -64 -59
-25 -109 -44 -110 -42 -2 2 -23 76 -46 163 -205 772 -546 1561 -869 2015 -40
55 -77 103 -82 106 -19 12 -10 22 33 35 130 39 295 146 423 274 230 232 372
506 402 783 12 105 -2 452 -23 563 -34 183 -123 399 -222 539 -163 231 -446
440 -723 535 -59 20 -225 56 -259 56 -3 0 -5 62 -3 139 5 221 -30 372 -109
472 -59 74 -236 151 -420 183 -119 21 -342 21 -427 1 l-63 -15 -72 49 c-40 27
-122 73 -182 104 -286 143 -548 203 -925 213 -102 3 -201 6 -220 7 -19 1 -109
0 -200 -4z m-1605 -3849 c3 -5 1 -10 -4 -10 -6 0 -11 5 -11 10 0 6 2 10 4 10
3 0 8 -4 11 -10z m142 4 c-3 -3 -12 -4 -19 -1 -8 3 -5 6 6 6 11 1 17 -2 13 -5z
m83 -20 c0 -2 -7 -4 -15 -4 -8 0 -15 4 -15 10 0 5 7 7 15 4 8 -4 15 -8 15 -10z
m-340 -4 c-8 -5 -24 -9 -35 -9 l-20 0 20 9 c11 5 27 9 35 9 13 1 13 0 0 -9z
m290 0 c18 -12 2 -12 -25 0 -13 6 -15 9 -5 9 8 0 22 -4 30 -9z m110 -6 c0 -2
-11 -3 -24 -2 -14 1 -23 5 -20 9 4 7 44 0 44 -7z m-572 -38 c-14 -15 -33 -15
-45 -1 -4 4 -3 6 2 2 6 -3 17 -2 25 4 22 13 33 11 18 -5z m52 4 c-20 -13 -33
-13 -25 0 3 6 14 10 23 10 15 0 15 -2 2 -10z m600 -5 c7 -8 17 -15 22 -15 5 0
25 -15 44 -32 l34 -33 -27 -1 c-16 -1 -22 1 -15 3 6 3 12 9 12 15 0 6 -7 8
-15 4 -8 -3 -14 0 -12 7 1 7 -6 11 -17 9 -10 -2 -15 1 -12 6 3 6 -9 19 -27 31
-19 13 -26 21 -16 21 9 0 22 -7 29 -15z m-623 -31 c-3 -3 -12 -4 -19 -1 -8 3
-5 6 6 6 11 1 17 -2 13 -5z m603 -8 c0 -2 -7 -7 -16 -10 -8 -3 -12 -2 -9 4 6
10 25 14 25 6z m-790 -20 c-20 -18 -65 -32 -56 -17 4 6 16 11 26 11 10 0 22 5
25 10 3 6 9 10 13 10 3 0 0 -6 -8 -14z m737 -8 c-3 -8 -6 -5 -6 6 -1 11 2 17
5 13 3 -3 4 -12 1 -19z m-62 2 c-3 -5 -13 -10 -21 -10 -8 0 -12 5 -9 10 3 6
13 10 21 10 8 0 12 -4 9 -10z m-65 -20 c0 -5 -5 -10 -11 -10 -5 0 -7 5 -4 10
3 6 8 10 11 10 2 0 4 -4 4 -10z m-660 -15 c17 -9 30 -18 30 -21 0 -2 -9 0 -19
6 -25 13 -34 13 -25 -1 4 -8 0 -8 -15 0 -12 7 -27 9 -34 6 -6 -4 -3 1 7 9 24
19 21 19 56 1z m777 -42 c-3 -10 -5 -2 -5 17 0 19 2 27 5 18 2 -10 2 -26 0
-35z m168 37 c-3 -5 -11 -10 -16 -10 -6 0 -7 5 -4 10 3 6 11 10 16 10 6 0 7
-4 4 -10z m61 -57 c-2 -3 -11 4 -18 16 -7 12 -19 21 -27 21 -11 0 -11 3 -1 15
11 14 15 11 32 -16 10 -17 17 -33 14 -36z m-461 26 c11 -16 1 -19 -13 -3 -7 8
-8 14 -3 14 5 0 13 -5 16 -11z m355 1 c0 -5 -7 -10 -16 -10 -8 0 -12 5 -9 10
3 6 10 10 16 10 5 0 9 -4 9 -10z m-1005 -10 c-3 -5 -11 -10 -16 -10 -6 0 -7 5
-4 10 3 6 11 10 16 10 6 0 7 -4 4 -10z m679 -15 c-9 -14 -18 -25 -21 -25 -5 0
5 18 20 38 17 22 18 13 1 -13z m-34 -16 c0 -6 -4 -7 -10 -4 -5 3 -10 11 -10
16 0 6 5 7 10 4 6 -3 10 -11 10 -16z m1010 -5 c191 -57 367 -206 451 -380 23
-48 41 -71 77 -96 26 -17 88 -73 137 -123 85 -85 136 -148 350 -431 87 -115
289 -330 350 -371 26 -19 28 -23 15 -39 -14 -16 -13 -16 10 -5 21 10 20 9 -5
-11 -16 -13 -32 -23 -35 -23 -3 -1 -15 -6 -27 -13 -25 -14 -117 -35 -148 -34
-115 4 -165 8 -165 15 0 4 8 7 18 8 13 0 14 2 2 5 -50 17 -97 41 -108 56 -7
10 -22 18 -33 18 -12 0 -19 7 -19 19 0 15 -11 19 -72 25 -40 4 -95 7 -123 7
-37 0 -45 2 -30 9 15 7 16 9 4 9 -9 1 -34 9 -55 18 -22 9 -41 17 -44 18 -6 1
-74 36 -120 61 -19 10 -40 25 -48 32 -7 6 -21 12 -29 12 -9 0 -14 3 -10 6 7 7
-17 34 -31 34 -5 0 -17 11 -26 25 -9 14 -23 25 -32 25 -8 0 -13 4 -9 9 3 6 -3
18 -13 28 -20 19 -90 123 -123 181 -11 18 -19 52 -19 76 0 55 -29 151 -64 210
-55 93 -186 179 -276 180 -44 1 -45 0 -45 -30 0 -27 -3 -30 -25 -28 -14 2 -43
4 -65 5 -22 1 -45 6 -52 11 -7 6 -22 7 -35 4 -13 -3 -17 -3 -10 0 8 4 -4 17
-33 35 -25 16 -45 34 -45 40 0 7 -3 9 -7 5 -4 -4 -13 8 -19 26 -6 18 -17 32
-24 30 -6 -1 -9 2 -6 7 7 11 -13 71 -24 71 -12 0 -7 33 7 48 17 17 24 17 286
-30 175 -31 240 -39 248 -31 22 22 0 42 -70 64 -39 13 -71 26 -71 29 0 3 16
21 35 40 58 56 40 117 -27 91 -23 -9 -71 -54 -100 -94 -20 -27 -78 -13 -76 18
1 13 6 21 10 19 4 -3 8 2 8 10 0 8 20 27 45 42 25 14 45 30 45 35 0 5 7 9 15
9 8 0 15 5 15 11 0 6 7 8 16 5 9 -4 13 -2 8 5 -4 7 -21 9 -40 6 -24 -4 -32 -2
-28 5 10 16 246 3 314 -18z m-365 6 c-3 -5 -14 -10 -23 -10 -15 0 -15 2 -2 10
20 13 33 13 25 0z m41 -21 c1 -12 -5 -14 -25 -10 l-26 5 24 4 c19 3 21 6 10
14 -12 8 -12 9 0 6 8 -2 15 -11 17 -19z m-495 -4 c0 -6 -10 -12 -23 -13 -19
-4 -20 -2 -9 12 15 17 33 18 32 1z m404 5 c-3 -5 -14 -10 -23 -9 -14 0 -13 2
3 9 27 11 27 11 20 0z m-606 -31 c-13 -26 -19 -24 -17 5 1 15 7 22 15 19 9 -4
10 -10 2 -24z m-749 -8 c0 -5 -9 -7 -20 -4 -23 6 -25 0 -10 -27 8 -16 7 -18
-4 -14 -21 8 -29 36 -14 46 18 11 48 10 48 -1z m580 -1 c0 -12 -8 -12 -35 0
-18 8 -17 9 8 9 15 1 27 -3 27 -9z m354 -5 c-6 -16 -24 -21 -24 -7 0 11 11 22
21 22 5 0 6 -7 3 -15z m-544 -5 c0 -5 -5 -10 -11 -10 -5 0 -7 5 -4 10 3 6 8
10 11 10 2 0 4 -4 4 -10z m87 4 c-3 -3 -12 -4 -19 -1 -8 3 -5 6 6 6 11 1 17
-2 13 -5z m413 2 c0 -2 -7 -7 -16 -10 -8 -3 -12 -2 -9 4 6 10 25 14 25 6z
m-463 -12 c-3 -3 -12 -4 -19 -1 -8 3 -5 6 6 6 11 1 17 -2 13 -5z m640 -10 c-3
-3 -12 -4 -19 -1 -8 3 -5 6 6 6 11 1 17 -2 13 -5z m-1120 -56 c-3 -8 -6 -5 -6
6 -1 11 2 17 5 13 3 -3 4 -12 1 -19z m30 -30 c-3 -7 -5 -2 -5 12 0 14 2 19 5
13 2 -7 2 -19 0 -25z m481 5 c-16 -2 -40 -2 -55 0 -16 2 -3 4 27 4 30 0 43 -2
28 -4z m289 1 c-3 -3 -12 -4 -19 -1 -8 3 -5 6 6 6 11 1 17 -2 13 -5z m-910
-50 c-3 -3 -12 -4 -19 -1 -8 3 -5 6 6 6 11 1 17 -2 13 -5z m1260 0 c-3 -3 -12
-4 -19 -1 -8 3 -5 6 6 6 11 1 17 -2 13 -5z m-1437 -30 c0 -14 10 -16 68 -12
37 3 59 3 49 1 -9 -3 -14 -9 -11 -15 4 -7 -4 -8 -24 -3 -17 3 -33 2 -37 -4 -3
-7 0 -8 9 -5 10 4 16 1 16 -10 0 -10 6 -13 18 -9 9 3 14 3 10 -2 -4 -4 0 -14
8 -22 13 -14 13 -18 -2 -35 -17 -18 -16 -21 37 -73 191 -189 219 -536 69 -840
-89 -180 -235 -344 -413 -464 -35 -24 -47 -38 -45 -53 2 -16 -7 -24 -47 -39
-27 -10 -51 -19 -52 -19 -2 0 -17 29 -35 66 -41 84 -145 184 -234 226 -128 60
-275 61 -387 3 -30 -16 -53 -23 -55 -17 -9 29 -67 96 -111 129 -33 25 -50 46
-50 61 -1 12 -32 84 -70 160 -40 77 -82 178 -97 231 -46 161 -24 330 51 401
20 18 31 22 61 17 30 -5 48 -1 88 23 151 85 555 212 911 286 183 38 275 44
275 18z m172 -26 c-7 -7 -12 -20 -12 -30 0 -10 -4 -18 -10 -18 -13 0 -13 3 2
35 6 14 16 25 22 25 6 0 5 -5 -2 -12z m83 -118 c-3 -5 -12 -10 -18 -10 -7 0
-6 4 3 10 19 12 23 12 15 0z m48 -57 c-3 -7 -6 -13 -8 -13 -2 0 -5 6 -8 13 -3
8 1 14 8 14 7 0 11 -6 8 -14z m1297 -23 c8 -5 11 -10 5 -10 -5 0 -17 5 -25 10
-8 5 -10 10 -5 10 6 0 17 -5 25 -10z m-25 -20 c3 -5 2 -10 -4 -10 -5 0 -13 5
-16 10 -3 6 -2 10 4 10 5 0 13 -4 16 -10z m-738 -42 c-3 -8 -6 -5 -6 6 -1 11
2 17 5 13 3 -3 4 -12 1 -19z m320 16 c-3 -3 -12 -4 -19 -1 -8 3 -5 6 6 6 11 1
17 -2 13 -5z m738 -24 c3 -6 -1 -7 -9 -4 -18 7 -21 14 -7 14 6 0 13 -4 16 -10z
m-1508 -92 c-3 -8 -6 -5 -6 6 -1 11 2 17 5 13 3 -3 4 -12 1 -19z m1583 2 c0
-5 -2 -10 -4 -10 -3 0 -8 5 -11 10 -3 6 -1 10 4 10 6 0 11 -4 11 -10z m-1560
-60 c0 -13 -1 -13 -10 0 -5 8 -10 22 -10 30 0 13 1 13 10 0 5 -8 10 -22 10
-30z m4625 -116 c161 -198 222 -419 212 -759 -6 -189 -11 -225 -32 -225 -7 0
-16 -6 -18 -12 -4 -10 -8 -9 -16 2 -10 13 -12 13 -21 0 -6 -10 -10 -11 -10 -2
0 7 -15 12 -39 12 -22 0 -51 4 -65 10 -17 6 -35 6 -52 0 -16 -6 -23 -6 -19 0
7 12 -38 24 -67 17 -13 -2 -34 -1 -48 4 -22 8 -21 8 8 4 47 -7 39 1 -22 20
-32 10 -66 15 -81 11 -16 -4 -24 -3 -21 3 10 16 -85 30 -149 22 -61 -7 -110
-31 -110 -54 0 -6 -8 -13 -19 -15 -11 -3 -16 0 -12 7 5 7 1 8 -9 4 -12 -4 -13
-8 -5 -13 9 -6 9 -9 0 -15 -7 -4 -16 -1 -21 6 -5 8 -9 11 -9 7 0 -5 0 -11 -1
-15 0 -8 -32 -23 -59 -29 -8 -1 -37 -10 -64 -20 -42 -15 -57 -16 -110 -6 -34
7 -66 13 -73 14 -7 1 -10 5 -7 9 2 4 -5 10 -16 14 -11 3 -20 11 -20 16 0 6 -9
7 -21 4 -17 -6 -20 -4 -15 12 4 12 -3 28 -19 45 -16 17 -22 33 -18 44 5 13 3
15 -7 9 -10 -6 -11 -2 -6 19 5 21 4 26 -6 20 -9 -5 -10 -4 -3 3 6 6 79 13 170
15 140 5 170 8 240 32 272 92 478 335 561 664 13 52 24 112 24 133 0 55 20 50
75 -17z m-4345 -148 c0 -2 -7 -7 -16 -10 -8 -3 -12 -2 -9 4 6 10 25 14 25 6z
m-273 -118 c-3 -8 -6 -5 -6 6 -1 11 2 17 5 13 3 -3 4 -12 1 -19z m-10 -40 c-3
-8 -6 -5 -6 6 -1 11 2 17 5 13 3 -3 4 -12 1 -19z m-10 -40 c-3 -8 -6 -5 -6 6
-1 11 2 17 5 13 3 -3 4 -12 1 -19z m-8 -98 c0 -9 -4 -8 -9 5 -5 11 -9 27 -9
35 0 9 4 8 9 -5 5 -11 9 -27 9 -35z m-44 -59 c-14 -13 -16 -13 -11 -1 3 8 9
24 13 35 7 19 7 19 11 1 2 -10 -4 -26 -13 -35z m2190 39 c3 -6 -1 -7 -9 -4
-18 7 -21 14 -7 14 6 0 13 -4 16 -10z m25 -30 c-8 -5 -19 -10 -25 -10 -5 0 -3
5 5 10 8 5 20 10 25 10 6 0 3 -5 -5 -10z m-1803 -32 c-3 -8 -6 -5 -6 6 -1 11
2 17 5 13 3 -3 4 -12 1 -19z m-441 -40 c4 -7 3 -9 -1 -5 -5 4 -15 -3 -22 -15
-8 -15 -12 -18 -13 -7 0 8 5 20 12 27 15 15 15 15 24 0z m4 -30 c0 -7 -5 -20
-10 -28 -8 -12 -10 -9 -10 13 0 15 5 27 10 27 6 0 10 -6 10 -12z m-1652 -73
c62 -19 125 -65 170 -125 18 -25 43 -58 56 -75 l23 -29 84 39 c80 38 88 40
184 40 91 0 105 -3 154 -29 110 -57 189 -164 227 -307 10 -35 21 -69 26 -75 4
-6 34 -14 66 -17 102 -11 161 -49 219 -140 60 -96 86 -251 64 -381 -14 -82
-78 -213 -120 -249 -108 -91 -262 -136 -487 -144 -169 -6 -269 5 -400 43 -377
109 -664 377 -741 692 -25 102 -22 275 7 387 35 139 99 266 162 325 59 54 202
75 306 45z m4892 1 c0 -3 -4 -8 -10 -11 -5 -3 -10 -1 -10 4 0 6 5 11 10 11 6
0 10 -2 10 -4z m-3366 -63 c-28 -37 -96 -105 -101 -100 -1 2 25 32 57 67 33
35 60 68 60 73 0 6 3 8 6 4 3 -3 -7 -23 -22 -44z m56 37 c0 -5 -5 -10 -11 -10
-5 0 -7 5 -4 10 3 6 8 10 11 10 2 0 4 -4 4 -10z m3383 -14 c17 -13 17 -14 0
-20 -10 -4 -14 -4 -10 0 4 4 -1 13 -11 20 -9 7 -12 13 -7 13 6 0 18 -6 28 -13z
m-3382 -29 c-10 -9 -11 -8 -5 6 3 10 9 15 12 12 3 -3 0 -11 -7 -18z m3354 13
c3 -5 2 -10 -4 -10 -5 0 -13 5 -16 10 -3 6 -2 10 4 10 5 0 13 -4 16 -10z
m-422 -7 c-7 -2 -19 -2 -25 0 -7 3 -2 5 12 5 14 0 19 -2 13 -5z m552 -23 c13
-6 15 -9 5 -9 -8 0 -22 4 -30 9 -18 12 -2 12 25 0z m60 -20 c19 -8 19 -9 -2
-9 -12 -1 -25 4 -28 9 -7 12 2 12 30 0z m-45 -10 c13 -9 13 -10 0 -10 -8 0
-22 5 -30 10 -13 9 -13 10 0 10 8 0 22 -5 30 -10z m178 -26 c12 -4 22 -14 22
-23 0 -12 -2 -13 -9 -3 -4 7 -21 17 -37 22 -33 9 -12 13 24 4z m-1483 -74 c-3
-5 -12 -10 -18 -10 -7 0 -6 4 3 10 19 12 23 12 15 0z m2362 -46 c-3 -3 -12 -4
-19 -1 -8 3 -5 6 6 6 11 1 17 -2 13 -5z m140 -40 c-3 -3 -12 -4 -19 -1 -8 3
-5 6 6 6 11 1 17 -2 13 -5z m-2319 -29 c-3 -3 -9 2 -12 12 -6 14 -5 15 5 6 7
-7 10 -15 7 -18z m2589 -17 c-3 -8 -6 -5 -6 6 -1 11 2 17 5 13 3 -3 4 -12 1
-19z m-4632 -28 c3 -6 -1 -7 -9 -4 -18 7 -21 14 -7 14 6 0 13 -4 16 -10z m452
-22 c-3 -8 -6 -5 -6 6 -1 11 2 17 5 13 3 -3 4 -12 1 -19z m3116 15 c-7 -2 -19
-2 -25 0 -7 3 -2 5 12 5 14 0 19 -2 13 -5z m1038 -16 c-10 -9 -11 -8 -5 6 3
10 9 15 12 12 3 -3 0 -11 -7 -18z m-5261 -8 c0 -5 -4 -9 -10 -9 -5 0 -10 7
-10 16 0 8 5 12 10 9 6 -3 10 -10 10 -16z m5235 -109 c3 -5 1 -10 -4 -10 -6 0
-11 5 -11 10 0 6 2 10 4 10 3 0 8 -4 11 -10z m115 -95 c0 -5 -9 4 -20 20 -11
17 -20 27 -20 23 0 -3 -3 -14 -7 -24 -4 -10 -2 -15 3 -11 5 3 10 -2 10 -12 0
-10 -5 -18 -11 -18 -9 0 -13 62 -6 87 3 8 51 -54 51 -65z m-4863 23 c-3 -8 -6
-5 -6 6 -1 11 2 17 5 13 3 -3 4 -12 1 -19z m638 -8 c-3 -5 3 -10 14 -10 12 0
21 5 21 11 0 12 7 11 110 -10 32 -6 47 -6 52 2 4 6 10 8 15 4 4 -5 2 -12 -6
-16 -7 -5 -11 -19 -9 -32 3 -23 7 -24 73 -24 50 0 78 -5 97 -17 20 -13 28 -14
32 -5 3 7 5 6 4 -3 -1 -8 24 -40 55 -71 36 -35 59 -67 63 -87 4 -18 11 -29 16
-26 6 4 7 -2 3 -16 -5 -15 -4 -20 4 -16 7 4 11 -1 11 -13 0 -11 10 -27 22 -35
12 -9 18 -16 13 -16 -33 -1 46 -28 230 -80 111 -30 148 -43 160 -52 5 -4 18
-8 28 -8 11 0 26 -8 34 -17 8 -10 11 -12 7 -4 -4 7 -3 12 2 9 44 -20 64 -33
64 -41 0 -5 -11 -2 -25 7 -14 9 -25 12 -25 7 0 -5 13 -14 30 -21 16 -7 27 -17
23 -23 -3 -5 -1 -7 4 -4 6 4 16 0 23 -8 7 -8 9 -15 6 -15 -4 0 -2 -9 4 -20 6
-11 14 -19 18 -16 4 2 8 -3 9 -12 1 -9 6 -35 12 -57 6 -22 11 -55 11 -72 0
-24 5 -33 18 -34 15 -1 15 -2 0 -6 -9 -2 -21 -17 -27 -34 -5 -16 -14 -29 -18
-29 -4 0 -78 -9 -163 -20 -260 -34 -543 -46 -742 -32 -154 10 -371 41 -513 73
-128 29 -460 147 -735 261 l-55 23 14 40 c17 48 20 242 4 296 l-11 36 57 6
c36 3 81 17 121 37 l64 32 99 -11 c54 -6 112 -18 128 -27 17 -8 38 -13 46 -9
13 4 14 3 4 -9 -7 -8 -22 -16 -33 -18 -12 -2 -26 -11 -32 -21 -18 -28 10 -38
95 -34 l77 4 5 -42 c16 -114 -51 -183 -185 -193 -46 -3 -69 -9 -72 -19 -8 -21
2 -33 40 -49 54 -23 133 -18 192 12 104 52 143 150 108 267 l-14 47 59 32 c79
41 135 93 184 167 22 33 47 62 55 64 26 8 31 7 25 -3z m-265 -60 c0 -5 -2 -10
-4 -10 -3 0 -8 5 -11 10 -3 6 -1 10 4 10 6 0 11 -4 11 -10z m4534 -40 c12 -25
13 -31 3 -20 -8 8 -18 26 -22 40 -9 32 -3 25 19 -20z m1905 -1 c79 -27 197
-105 252 -167 164 -184 242 -405 243 -687 0 -235 -55 -407 -191 -590 -94 -127
-176 -195 -327 -272 -72 -36 -148 -77 -168 -89 l-37 -24 -5 33 c-3 17 -22 149
-41 292 -20 143 -40 280 -45 305 -5 25 -32 164 -60 310 -28 146 -63 315 -76
375 -31 134 -93 394 -100 417 -4 13 13 26 78 58 46 22 113 47 148 55 91 21
245 13 329 -16z m-3080 -45 c2 -2 -10 -4 -27 -4 -17 0 -34 4 -37 10 -5 9 53 3
64 -6z m-3816 -1 c-7 -2 -21 -2 -30 0 -10 3 -4 5 12 5 17 0 24 -2 18 -5z
m3934 -9 c-3 -3 -12 -4 -19 -1 -8 3 -5 6 6 6 11 1 17 -2 13 -5z m270 0 c-3 -3
-12 -4 -19 -1 -8 3 -5 6 6 6 11 1 17 -2 13 -5z m201 -19 c9 -9 -71 5 -81 15
-5 4 10 4 33 0 22 -4 44 -11 48 -15z m622 -17 c0 -5 -4 -8 -10 -8 -5 0 -10 10
-10 23 0 18 2 19 10 7 5 -8 10 -18 10 -22z m-7 -68 c3 -11 3 -20 1 -20 -2 0
-8 9 -14 20 -6 11 -7 20 -2 20 6 0 12 -9 15 -20z m-832 -19 c135 -52 239 -179
299 -365 12 -37 29 -70 38 -73 25 -10 44 27 39 75 -2 23 -1 42 3 42 34 0 320
-265 320 -297 0 -42 -245 -243 -443 -364 -114 -70 -314 -132 -531 -166 -154
-24 -474 -24 -606 0 -127 24 -344 98 -436 150 -68 38 -151 110 -202 177 -65
85 -109 239 -97 346 14 135 119 287 219 316 58 17 181 14 248 -6 68 -20 77
-17 160 60 120 110 281 125 458 43 86 -41 85 -41 137 -5 139 95 263 116 394
67z m882 -61 c3 -11 1 -18 -4 -14 -5 3 -9 0 -9 -7 0 -7 -3 -10 -6 -6 -5 5 4
47 11 47 1 0 5 -9 8 -20z m-2936 -6 c-3 -3 -12 -4 -19 -1 -8 3 -5 6 6 6 11 1
17 -2 13 -5z m518 -24 c-3 -5 -12 -10 -18 -10 -7 0 -6 4 3 10 19 12 23 12 15
0z m-1291 -19 c4 -5 -3 -7 -14 -4 -23 6 -26 13 -6 13 8 0 17 -4 20 -9z m3710
-71 c6 -28 5 -32 -4 -17 -15 24 -25 75 -12 62 6 -5 13 -26 16 -45z m23 -27
c-3 -10 -5 -4 -5 12 0 17 2 24 5 18 2 -7 2 -21 0 -30z m-267 5 c0 -13 -23 -5
-28 10 -2 7 2 10 12 6 9 -3 16 -11 16 -16z m17 -30 c-3 -8 -6 -5 -6 6 -1 11 2
17 5 13 3 -3 4 -12 1 -19z m-2448 -39 c-47 -39 -58 -36 -17 4 18 18 37 31 42
28 5 -2 -6 -17 -25 -32z m2476 21 c3 -5 1 -10 -4 -10 -6 0 -11 5 -11 10 0 6 2
10 4 10 3 0 8 -4 11 -10z m192 -42 c-3 -8 -6 -5 -6 6 -1 11 2 17 5 13 3 -3 4
-12 1 -19z m53 -108 c0 -16 -4 -30 -10 -30 -5 0 -10 14 -10 30 0 17 5 30 10
30 6 0 10 -13 10 -30z m-120 -105 c0 -14 -2 -25 -4 -25 -2 0 -6 11 -8 25 -3
14 -1 25 3 25 5 0 9 -11 9 -25z m117 3 c-3 -8 -6 -5 -6 6 -1 11 2 17 5 13 3
-3 4 -12 1 -19z m-15 -88 c-2 -16 -6 -30 -8 -30 -2 0 -4 14 -4 30 0 17 4 30 8
30 5 0 7 -13 4 -30z m-3115 4 c-3 -3 -12 -4 -19 -1 -8 3 -5 6 6 6 11 1 17 -2
13 -5z m16 -21 c-7 -2 -21 -2 -30 0 -10 3 -4 5 12 5 17 0 24 -2 18 -5z m3062
-43 c4 -16 11 -32 16 -35 5 -4 9 -14 9 -23 -1 -16 -48 73 -49 91 -2 21 18 -7
24 -33z m35 -5 c0 -8 -2 -15 -4 -15 -2 0 -6 7 -10 15 -3 8 -1 15 4 15 6 0 10
-7 10 -15z"/>
<path d="M3868 4353 c7 -3 16 -2 19 1 4 3 -2 6 -13 5 -11 0 -14 -3 -6 -6z"/>
<path d="M1125 3654 c-75 -41 -155 -143 -155 -198 0 -24 23 -56 41 -56 15 0
47 37 68 79 24 45 96 111 123 111 38 0 76 -30 98 -76 20 -41 22 -56 17 -145
-4 -86 -3 -100 12 -108 60 -33 107 101 77 219 -32 125 -90 182 -190 187 -42 2
-70 -2 -91 -13z"/>
<path d="M2925 7813 c-94 -63 -224 -213 -276 -315 -32 -64 -36 -90 -15 -107
21 -17 42 -3 109 69 58 63 230 275 261 323 38 57 -11 76 -79 30z"/>
<path d="M6403 7764 c-24 -64 132 -321 311 -511 92 -97 139 -131 161 -113 12
10 13 16 1 39 -8 14 -23 35 -33 46 -24 26 -117 144 -177 223 -26 34 -81 115
-121 180 -41 64 -81 125 -89 135 -20 21 -45 22 -53 1z"/>
<path d="M3335 7002 c-131 -49 -226 -132 -302 -263 -76 -132 -87 -285 -23
-302 32 -8 57 23 70 87 27 133 138 284 246 336 103 51 225 35 306 -38 47 -42
68 -82 97 -178 24 -81 39 -99 77 -90 60 15 71 153 21 252 -38 74 -107 140
-185 177 -58 27 -80 32 -162 34 -74 3 -106 -1 -145 -15z"/>
<path d="M5785 6796 c-84 -21 -156 -65 -230 -140 -104 -105 -153 -220 -110
-256 27 -23 59 -2 100 66 154 254 424 286 563 67 45 -71 72 -162 82 -280 10
-111 19 -133 55 -133 84 0 106 225 39 386 -46 110 -141 216 -230 258 -95 45
-177 55 -269 32z"/>
<path d="M4145 6544 c-198 -27 -296 -55 -433 -124 -337 -168 -539 -446 -559
-765 -23 -382 293 -705 686 -705 163 0 302 48 435 149 l69 52 36 -39 c55 -59
167 -140 240 -174 194 -89 443 -100 668 -30 159 50 330 177 387 289 53 105 71
195 71 348 -1 162 -14 220 -81 360 -113 234 -328 442 -562 545 -268 119 -570
148 -957 94z m575 -100 c270 -47 468 -142 639 -308 191 -185 273 -362 271
-585 0 -177 -38 -285 -128 -374 -65 -64 -151 -113 -258 -147 -135 -43 -242
-55 -364 -41 -181 20 -306 79 -423 200 -37 38 -76 73 -87 76 -23 7 -60 -11
-148 -74 -122 -87 -266 -127 -431 -119 -113 6 -202 37 -296 103 -158 111 -235
262 -235 456 0 265 171 526 440 672 119 64 379 133 595 156 110 12 310 5 425
-15z"/>
<path d="M4217 6220 c-57 -10 -77 -24 -77 -54 1 -26 13 -42 70 -87 106 -86
139 -88 240 -16 110 78 123 124 42 147 -51 15 -217 21 -275 10z"/>
</g>
</svg>
